<svg xmlns="http://www.w3.org/2000/svg" viewBox="0 0 411.67 411.58"><defs><style>.cls-1{fill:#231f20;}</style></defs><title>Asset 2</title><g id="Layer_2" data-name="Layer 2"><g id="Layer_1-2" data-name="Layer 1"><path class="cls-1" d="M9.23,3.43c9.43-1.07,30.16-1.91,38.53,2.25,12.92,6.41,7.09,21.92,6.63,33.4C54.1,46.55,53.64,52.62,60,56s14.51.88,21-.12C91.2,54.29,111.5,52.7,114.11,66.2c1.35,7,.19,8.8,1.26,15.44.52,3.18,1.44,6.39,1.37,9.72-.08,3.73-1.18,8.12-1.84,12.25-2.69,16.85,23.54,9,34.63,8.69,5.63-.16,16.09.39,21.28,2.33,8.59,3.22,4.56,11.19,4.55,19.29,0,11.92-5.07,37,8.18,39.67,9.93,2,51.33-7.12,55.6,3.94,1.05,2.7-1.69,12.75-1.68,16.24,0,4.75.27,9.58,0,14.32-.35,7-2.17,14.2.93,21.09,9.68-1.7,19.22-3.51,29.33-4,6.09-.29,21.82-1.24,24.69,3.77,5.82,10.13.94,33.12,2.37,44.33,4.68,1,10-1.36,15-1.31,4.69.06,9.09,1.89,13.75,2.2,5.06.33,19.68-3.37,23.48,2.3,3.64,5.43-1.76,22.53-2.38,28.54-1,9.35-1.94,18.42-1.46,28,5.31,1,11.79-1.86,17.38-2.16,6-.32,12.12.28,18.16,0,7.33-.29,25.74-4.92,29.62,4,3.22,7.41-5.68,20.93-6.44,28.22-1,9.71,3.39,22.78,5.58,32.18-6.41.08-12.4-2.82-19-2.44-10.78.62-21.49,2.23-32.4,2.73-15.05.69-29.44,5.79-44.45,7.48-21.07,2.37-42.06,3.27-63.16,5-22.6,1.9-45.37.79-68-.42-13.53-.73-27.95.9-41.19-2.26-16.4-3.92-32.37-9.75-48.87-13.56a70.29,70.29,0,0,0-29.87-.51c-10.07,1.84-17.37,9.39-27.18,11.24-4.45.85-14.61.95-18.63-1.71-7.93-5.25-3.31-23.42-3.22-32.6.37-37.43,4.67-77.32-.77-114.56C6.61,224.56,6.46,194.46,5.16,165,3.56,129,4.42,93.1,2.74,57.12,2.23,46.23,2.31,33.61,4,22.86c1.1-7,5.25-19.43,3.64-20.23Z"/><path class="cls-1" d="M9.23,5.93a142.75,142.75,0,0,1,23.11-.7c7.3.4,17.1,1.08,20.2,9,2.74,7,.11,15.42-.5,22.59-.54,6.47-1.29,14.62,4,19.43,6.22,5.64,15.36,3.82,22.79,2.5,6.51-1.16,13.33-2,19.93-1.1,3.34.43,7,1.31,9.68,3.53,3.42,2.89,3.73,7.49,3.88,11.67a77.09,77.09,0,0,0,.92,11c1.21,6.85.18,12.26-.76,19.06-1.77,12.75,10.1,14.54,20.11,13.72,5.66-.47,11.26-1.66,16.93-1.87,5.89-.21,22.27-1.19,24.14,6.14.92,3.6-.59,8-.77,11.63-.17,3.23-.24,6.45-.46,9.68-.46,6.81-1,13.75.12,20.52.85,5.06,3,10.24,8,12.46,4,1.79,8.88,1.2,13.1.93,7.35-.47,14.68-1.29,22-1.59,5.77-.24,13.79-1.08,19.06,1.89,4.93,2.8.41,12.67.21,17.31-.26,6,.28,11.89-.23,17.85-.53,6.32-1.07,12.2,1.29,18.22a2.6,2.6,0,0,0,3.08,1.75c10.21-1.8,20.38-3.55,30.76-4,5.33-.23,15.32-1.69,19.78,2,4.73,3.89,3.33,15.84,3.14,21.16-.27,7.48-1.27,15.1-.46,22.57a2.6,2.6,0,0,0,2.5,2.5c5.41.71,10.51-1.54,15.89-1.26,4.84.25,9.44,2.24,14.33,2.16s18-3.82,20.4,2.26c1.3,3.33.11,8.2-.48,11.55-.65,3.69-1.54,7.32-2.23,11a142.4,142.4,0,0,0-2,31.47,2.58,2.58,0,0,0,2.5,2.5c6.5.78,12.73-2,19.19-2.23,6-.24,11.94.49,17.9,0,6.39-.52,20.48-4.6,25.14,1.6,2.88,3.81,0,10.24-1.44,14.13-1.58,4.25-3.7,8.47-4.42,13-1.81,11.24,2.95,23.2,5.52,34l2.41-3.17c-6.42-.18-12.5-2.57-19-2.44-7,.14-14,1.22-20.91,1.88-6.53.61-13.12.74-19.63,1.61-6.83.92-13.55,2.45-20.28,3.88-14.4,3.07-29,4.24-43.65,5.3-14.42,1.05-28.86,2.32-43.29,3.12-14.24.78-28.51.51-42.75-.1-13.65-.58-27.24-.77-40.88-1.13-27.31-.72-51.83-15.9-79-17.32A60.52,60.52,0,0,0,45,395.15c-4.62,2.48-9.28,4.83-14.58,5.3-4.35.38-12,.92-15.26-2.58-2.74-3-2.55-8.09-2.46-11.84.13-4.95.9-9.85,1.26-14.77.91-12.46.69-25.11,1.18-37.6,1-26.92,1.83-53.87-1.9-80.63-4-28.54-4.32-57.35-5.54-86.1-1.35-32-1-64.06-2-96.08C5.3,56,4.15,41,6,26.14c.7-5.53,2.25-10.84,3.48-16.26.58-2.56,2-6.8-.12-9l-3,3.93L8,5.59C10.84,7,13.38,2.72,10.49,1.27L8.88.47C6.4-.77,3.8,2.28,5.85,4.39c-.92-.94-.19-.21-.51,1S4.92,7.5,4.69,8.55c-.48,2.12-1,4.22-1.54,6.33A104.78,104.78,0,0,0,.51,31.22C-.58,44.43.36,57.63.77,70.85c.9,29.09.56,58.2,1.61,87.29,1,28.65,1.4,57.52,4.74,86,1.6,13.75,3.43,27.31,3.82,41.17.41,14.54,0,29.08-.58,43.6-.5,13.42-.69,26.86-1.24,40.27-.35,8.5-2.68,17.32-.66,25.77s9.06,10.39,16.9,10.61a35.56,35.56,0,0,0,13.27-1.87c5.56-2,10.44-5.43,15.83-7.8,12.74-5.61,27.87-3.67,40.9-.33,13.35,3.42,26.4,7.91,39.75,11.32,13,3.32,25.95,2.87,39.26,3.05,14.38.2,28.73,1.46,43.12,1.61,16.36.18,32.55-1.19,48.85-2.33,16-1.11,32-1.89,47.92-4,7.47-1,14.8-2.74,22.17-4.28a195.34,195.34,0,0,1,25.5-3.24c7.63-.57,15.21-1.54,22.84-2.11,7.88-.6,15,2,22.76,2.18a2.52,2.52,0,0,0,2.41-3.16c-3-12.56-8.25-25.48-3.47-38.17,2.74-7.3,9.11-19.16,1.85-25.86-6.38-5.89-17.56-3.52-25.25-2.62-6.28.73-12.53.22-18.84.26-7,.06-14,3.1-21,2.26l2.5,2.5a142.43,142.43,0,0,1,2.82-35c1.36-6.46,4.72-17,.49-23s-14.52-4.11-20.7-3.54c-5.13.47-9.65-.81-14.7-1.58-6.42-1-12.48,1.77-18.82.94l2.5,2.5c-1-8.86.5-17.87.56-26.75.05-6.16.37-16.54-5.09-20.83s-14.61-3.42-20.93-3.2c-11.51.39-22.77,2.27-34.09,4.26l3.07,1.74c-2.19-5.61-1.6-11-1.11-16.89s0-11.89.23-17.85c.24-5.34,3.66-12.6,1.23-17.75-4.25-9-21.72-6.72-29.41-6.25-6.51.4-13,1.11-19.5,1.48-4.86.27-10.42,1-13.15-4-3.31-6-2.35-14.49-1.95-21.08.42-6.94.9-13.85,1.48-20.77.6-7.19-2.17-12-9.36-13.86A67.33,67.33,0,0,0,146.4,110c-6.13.6-12.2,1.83-18.37,1.86-2.61,0-5.7,0-8.07-1.27-3.22-1.74-2.89-4.93-2.34-8.13.82-4.81,2-9.51,1.41-14.42s-1.58-9.62-1.69-14.62c-.14-6.58-1.19-13.16-7-17.07C97.93,48,82.3,54.63,69,55.12c-6.41.23-11.59-2.27-12.15-9.09a67.55,67.55,0,0,1,.79-14c1-7.52,2.45-16.26-2.1-23C51.2,2.74,43.45,1.25,36.36.53A130.89,130.89,0,0,0,9.23.93C6.07,1.28,6,6.28,9.23,5.93Z"/></g></g></svg>