<svg xmlns="http://www.w3.org/2000/svg" viewBox="0 0 142.6 122.68"><defs><style>.cls-1{fill:#fff;}</style></defs><title>Asset 3</title><g id="Layer_2" data-name="Layer 2"><g id="Layer_1-2" data-name="Layer 1"><path class="cls-1" d="M7.29,11.85c.4-5.62,8-8.33,12.28-7.57,6.68,1.17,11.65,2,18.54,1,6-.79,12.15-.62,18.3-.62,7.05,0,13.12-1.3,20-2,6.55-.67,12.87.7,19.19,1,5.76.26,12.14-1.13,17.19,1.56,3.92,2.09,5.75,3.59,10.37,4.07,2.55.27,5.22.29,7.72.77,7.83,1.5,8.51,6.56,7.43,13.67-.94,6.16-2,12.21-3.18,18.36-1.36,6.79,1.26,9.67,3.19,15.92,4.91,15.85-1.53,30.42-3.57,45.44-1.61,11.87-12.21,9.51-21.61,8.59-10.89-1.07-22.86-.65-33.38,2.68-6.12,1.93-11.18,5.59-17.92,5.67-6,.07-12-2.91-17.68-4.62-9.81-2.93-19.8-3.13-29.74-4.62C6.75,110,1.09,105.4,2.66,96.84c2.2-11.92,4.87-22.79,2.64-35-1.23-6.75-3-16-2-22.8s4.32-11.76,4-18.92c-.12-2.85-1.07-5.53,0-8.23"/><path class="cls-1" d="M9.7,12.52c1.24-7.74,10.63-5.46,15.84-4.79,7.6,1,15-.43,22.58-.54A217.54,217.54,0,0,0,72.73,5.62c7.79-1,15.1.25,22.87.54,3.48.13,7-.34,10.45-.07,4.17.32,7,2.43,10.7,4.05,5.18,2.28,14.5.15,18.19,4.58,1.86,2.24,1.3,5.67,1,8.34-.56,4.3-1.36,8.59-2.13,12.85-1.23,6.74-2,11.73.5,18.26,6.26,16.34.86,31.32-1.8,47.75-1.2,7.38-5.33,8.79-12.21,8.33-6.51-.43-12.92-1.35-19.47-1.22a74.29,74.29,0,0,0-22.45,3.53c-7.37,2.53-13.44,6.5-21.55,4.69-7.86-1.76-15-5-23.07-6.25-7.22-1.07-15.39-.65-22.28-3.13-9.83-3.53-5.62-13.68-4.32-21.42,1.43-8.45,2-16.82.59-25.31-1.33-7.85-3.27-16-1.52-23.93.86-3.86,2.46-7.53,3.17-11.44.8-4.4-.76-9,.34-13.25.8-3.12-4-4.45-4.82-1.33-1,4,.2,7.89-.21,12-.46,4.67-2.54,9-3.49,13.54C-.33,44,1,51.63,2.24,58.9c1.81,10.25,1.29,19.65-.59,29.87C.5,95-1.76,101.84,2.43,107.47c3.72,5,9.94,6,15.72,6.69,10.26,1.27,20.24,2.18,30.07,5.62,7.49,2.62,14.33,4.22,22,1.44,4-1.44,7.74-3.42,11.84-4.59a69.67,69.67,0,0,1,15.12-2.46c8-.47,15.7.69,23.63,1.12,4.9.26,10.31-.26,13.59-4.37,1.8-2.24,2.41-4.9,2.86-7.67.75-4.63,1.74-9.2,2.73-13.79,1.76-8.16,3.3-16.51,2.23-24.89a59.27,59.27,0,0,0-3.67-13.06c-1.81-4.92-.91-9.25,0-14.27,1.2-6.6,3.92-15,2.21-21.72-1.39-5.43-6.28-7.55-11.44-8.2-4.29-.53-8.19-.45-12.1-2.5-3.22-1.68-6-3.18-9.64-3.6C102.78.67,97.88,1.38,93,1S83.16-.21,78.19.05C72.77.33,67.41,1.48,62,1.94c-5.22.43-10.46.14-15.7.29-5,.13-10.06,1.09-15.11,1-4.52-.1-9-1.63-13.47-1.54C12,1.77,5.83,5.24,4.88,11.19c-.5,3.15,4.31,4.5,4.82,1.33Z"/></g></g></svg>