<svg xmlns="http://www.w3.org/2000/svg" viewBox="0 0 512.42 478.77"><defs><style>.cls-1{fill:#231f20;}</style></defs><title>dAsset 1</title><g id="Layer_2" data-name="Layer 2"><g id="Layer_1-2" data-name="Layer 1"><path class="cls-1" d="M4.48,5C12.94,9.4,24.91,8.5,34.53,8,45,7.45,59.27.33,69.48,3,86.91,7.5,79.13,54.3,79.56,69.67c13.79,1.88,60.6-7.83,66.72,4.63,3.78,7.7-3.64,26.79-4.85,34.72-1.51,9.87,3.18,20.78.1,30.12C153.35,142.66,169,136.68,181,135c7.09-1,31-6.32,36.11.2,3.57,4.56-3.08,33.88-3.85,40.64-1.31,11.42-6.78,27.33,7.79,31.18,15.71,4.14,34.5-3.2,50.18-3.92,8.18-.38,16.15-2.19,18.24,6,1.19,4.61-2.34,12.63-3,17.4-1.58,11.87-2,27.19,1,38.85,3.95,15.1,25.06,10.11,39,8.7,4.77-.48,20.89-5.62,25.22-3,4.49,2.7,3.5,16.84,3.77,22.1.84,16.74,2.79,33.23,3.11,49.89,11.77.56,23.28,2.13,35.12,2.11,8.62,0,29-4.11,36.14.57,8.16,5.36,3.75,21.38,4.58,29.22.93,8.8,2.78,16.79,3.11,25.83,10.43,1.46,22.39.92,33,1.41,7.76.37,20.79-2.95,27.88-.15,14.83,5.84,11.29,38.29,10.55,51-.85,14.52-1.82,18.14-17.25,18.09-24.72-.09-49.15-.89-73.9.22-55.55,2.41-111,4.72-166.74,4.72-49.36,0-98.61-9.09-148-6.78q-30.84,1.44-61.66-.17c-7.5-.39-25.95-1.51-30.38-7C4.46,454,6,428.94,6.68,418.89c1.68-23.15-.75-45.67,0-68.71.7-23.51,5.8-46,5.85-69.77,0-15.61,1.38-30.76,2-46.26.79-19.83.09-39.14,2-58.88,2.23-22.78,1.12-40.63-4.57-62.73C3.24,78.75,10.14,41.42,2.48,8"/><path class="cls-1" d="M3.22,7.15C15.05,12.83,31.14,11.94,43.65,9c9.79-2.28,26.14-9.65,31.57,2.85,4,9.12,3.4,20.37,3.09,30.09-.29,9.2-1.44,18.44-1.25,27.66a2.59,2.59,0,0,0,2.5,2.5c19.15,2.32,39.16-5.51,58.16-.52,4.1,1.08,6.73,2.67,7.09,7.17.47,5.95-1.44,12.18-2.94,17.88-1.35,5.15-3,10.29-3.23,15.64-.33,8.78,2.93,17.45.48,26.13a2.54,2.54,0,0,0,1.75,3.08c14.41,3.81,30.17-2.36,44.39-4.78,5.52-.93,29.25-6.8,30.32,2,1.32,10.82-2.55,22.79-4.29,33.4-1.54,9.36-5.69,22.83.19,31.36,3.83,5.54,11.14,6.75,17.39,7.11,8.81.51,17.64-1.31,26.26-2.88,8.17-1.5,16.86-3.1,25.21-2.64,11,.59,5.41,12.35,4,19-1.68,8.13-1.87,16.93-1.54,25.19.28,6.9.52,15.77,4.53,21.68,6.92,10.19,22.6,7.51,32.89,6.23,6.3-.78,12.3-2,18.52-3.25,3-.63,7.12-1.9,10.22-1.21,3.42.77,3.47,5.31,3.71,8.29.71,8.46.54,17,1.17,25.48.9,12.14,2,24.25,2.25,36.42a2.56,2.56,0,0,0,2.5,2.5c12.54.65,25.26,2.74,37.83,2,8.84-.51,17.9-2.45,26.76-1.29,10.68,1.4,9.41,12.28,8.89,20.66-.7,11.42,2.42,22.48,3,33.86a2.6,2.6,0,0,0,2.5,2.5c16.11,2.08,32.49,1.44,48.62.31,6.32-.44,12.82-.5,16.56,5.4,2.94,4.65,3.83,10.6,4.28,16,.93,10.89.15,22.18-.91,33.05-.44,4.5-1.09,8.67-6,10-7.45,2-16.39.63-24,.55-80.55-.88-161.1,7.71-241.65,4.81-39.63-1.43-79-7.23-118.74-6.82-20.16.21-40.23,1.36-60.4.76C48,467,40.57,466.72,33.23,466c-5.82-.53-13.73-.89-18.76-4.26-4.64-3.1-5.15-10.91-5.59-15.95a143,143,0,0,1-.2-19.08c.78-17.39,1-34.56.54-52a399.75,399.75,0,0,1,2.94-58.39c2.34-19.72,2.49-39.3,3.57-59.09,1-19.49,1.43-38.92,1.92-58.43.48-19,3.44-37.84,1.89-56.84-1.48-18.14-7.45-35.39-9-53.51C8.9,69.94,9.68,51.32,8.4,32.78A171.76,171.76,0,0,0,4.89,7.33C4.19,4.19-.63,5.52.07,8.66,4.41,28.27,4,48.42,4.49,68.39a272.37,272.37,0,0,0,2,28.53c1.26,9.45,3.9,18.55,5.72,27.89,3.84,19.64,2.52,38.56,1.19,58.34-1.39,20.82-.8,41.73-2,62.57-1.13,20.4-.93,40.93-3.14,61.25s-4.57,40.36-4.18,60.9c.36,19.14.69,38-.3,57.15-.59,11.39-2,26.72,4.16,37,5.43,9.07,21.65,8.85,30.84,9.42a598,598,0,0,0,60.33.49c42.11-1.7,83.67,3.66,125.64,5.86,42.4,2.22,85.19.22,127.59-1.32,21.17-.76,42.34-1.69,63.5-2.62,20.74-.92,41.49-.64,62.24-.42,9.27.1,27.46,3.6,31.67-8.06,1.71-4.74,1.56-10.17,1.89-15.14.37-5.53.73-11.06.73-16.61,0-10.13-.4-23.82-8.52-31.2-4.25-3.87-10-4.3-15.5-4.08-7.72.31-15.17,1.24-22.91,1.06-9.31-.21-18.62,0-27.87-1.24l2.5,2.5c-.34-7.05-1.53-14-2.5-20.93a82.28,82.28,0,0,1-.28-16c.41-8,.14-18.18-8.65-21.44s-19.45-1-28.4-.14c-13.86,1.25-27.78-1-41.62-1.7l2.5,2.5c-.45-19.28-2.74-38.46-3.22-57.75-.12-4.77,0-12.06-3.84-15.59-3.61-3.28-10-1.72-14.24-.94-12.41,2.28-25.53,6.07-38.27,4.5-8.85-1.09-11.63-6.4-12.89-14.66a110.41,110.41,0,0,1,0-29c.78-6.78,4.91-14.25,3.26-21.11-1.49-6.2-7-8.25-12.75-8.25a140,140,0,0,0-24.5,2.68c-9.71,1.76-19.94,4.1-29.83,2.43-8.65-1.45-11.58-6.51-11.05-14.85.36-5.62,1.45-11.3,2.36-16.86,1.81-11.07,5.09-22.68,4.52-34-.67-13.13-18-10.32-27.06-9.1-6.59.89-13.26,1.94-19.76,3.32-10.24,2.18-21.16,5.74-31.62,3l1.75,3.07c1.86-6.59.85-13.12.12-19.8a45.29,45.29,0,0,1,1.35-17.14c2.22-8.45,6.68-19.7,3.61-28.44-2.14-6.1-9.25-7.76-15-8.5-9.13-1.18-18.48-.49-27.64.16-8.79.63-18.06,2.16-26.86,1.09l2.5,2.5c-.21-10,1.09-20,1.31-30s.39-21.19-3.86-30.4C74.74-1.08,64.45-1,54.51,1.16c-15.34,3.3-33.6,9-48.77,1.68C2.85,1.45.31,5.76,3.22,7.15Z"/><path class="cls-1" d="M78.69,300.91v-3.7c-.07-3.22-4.85-3.2-5,0-1.06,22-.38,43.87-2.48,65.76-1.35,14-2.57,34.75,12.14,42.63,12.75,6.83,29.18,2.28,42.48-.25,11.15-2.12,22.49-3.65,33.87-3.3,11.06.34,20.32,3.56,30.7,6.82,8.13,2.55,16.53,3.11,23.79-2,5.92-4.18,8.83-10.34,9.95-17.35,1.25-7.77.71-15.7.17-23.51a211.06,211.06,0,0,1,0-27.32c1.05-17.85-.22-37.89-15.61-49.74-14-10.8-30.31-5.64-44.65,1.44-6,3-11.85,5.18-18.62,5.41-5.87.19-11.73-.56-17.56-1.18-8.33-.88-16.22-3.58-24.24-5.86-10.82-3.09-28.29-7.5-30,8.47-.34,3.2,4.66,3.18,5,0,1.35-12.73,21.92-4.17,29-2.09,13.73,4.06,29.29,7.43,43.63,5.13,16.25-2.61,29.49-17.29,47-11.36s21.92,26.36,21.43,42.68c-.26,8.75-1.28,17.47-.9,26.23.31,7,1.1,14.07,1.1,21.13,0,6.76-.35,14.72-4.72,20.26-6.46,8.18-16,7.32-24.88,4.39-7.77-2.58-15.07-5.16-23.28-6a122.94,122.94,0,0,0-29.32.84c-14.06,1.86-28.66,6.92-43,5.37-21.34-2.31-20-26-18.37-42.26,2.12-21.38,1.3-42.84,2.33-64.28h-5V301c-.07,3.22,4.93,3.22,5,0Z"/></g></g></svg>