<svg xmlns="http://www.w3.org/2000/svg" viewBox="0 0 48.04 48.09"><title>Asset 10</title><g id="Layer_2" data-name="Layer 2"><g id="Layer_1-2" data-name="Layer 1"><path d="M0,24.12a24,24,0,1,1,24.1,24A24,24,0,0,1,0,24.12Zm24.05-9.79c5.12,4.58,10,9,14.89,13.2.64.56,1.88.45,2.84.64-.32-.88-.39-2-1-2.59-4.86-4.5-9.85-8.86-14.74-13.34-1.45-1.34-2.54-1.4-4,0-4.61,4.46-9.36,8.79-14,13.27-.67.65-.81,1.85-1.2,2.8,1-.28,2.39-.24,3.11-.88C14.67,23.23,19.23,18.86,24.05,14.33Zm.31,7L15.53,33.52l.4.7a20.3,20.3,0,0,1,16.88,0l.33-.73Z"/></g></g></svg>