<svg xmlns="http://www.w3.org/2000/svg" viewBox="0 0 40.66 28.9"><title>Asset 7</title><g id="Layer_2" data-name="Layer 2"><g id="Layer_1-2" data-name="Layer 1"><path d="M20.34,0c6.8,6.82,13.37,13.32,19.78,20,.68.7.38,2.33.54,3.53-1.28-.14-3,.2-3.77-.51C32.14,18.54,27.6,13.85,23,9.24c-.81-.8-1.65-1.57-2.9-2.75L5,21.87c-.51.53-1,1.33-1.57,1.49a16.43,16.43,0,0,1-3.38.21c.05-1.14-.35-2.66.23-3.34C2.49,17.68,5,15.4,7.37,13,11.59,8.77,15.82,4.53,20.34,0Z"/><path d="M20.31,12.07c4.84,4.87,9.46,9.43,13.94,14.12.5.53.23,1.79.32,2.71-.92-.21-2.11-.12-2.71-.68-3.14-2.94-6.13-6-9.18-9.08-.72-.72-1.5-1.39-2.55-2.37C16.49,20.5,13,24.16,9.42,27.62c-.79.76-2.24.84-3.38,1.22.34-1.14.36-2.59,1.1-3.37C11.31,21,15.65,16.78,20.31,12.07Z"/></g></g></svg>